<mxfile host="app.diagrams.net" modified="2024-03-05T00:01:51.948Z" agent="Mozilla/5.0 (Macintosh; Intel Mac OS X 10_15_7) AppleWebKit/537.36 (KHTML, like Gecko) Chrome/122.0.0.0 Safari/537.36" etag="YHbLJpKiQwJ7Kgb35FS3" version="24.0.0" type="device">
  <diagram name="Page-1" id="YQ_i5HuXihs0B8aKrKtk">
    <mxGraphModel dx="954" dy="640" grid="1" gridSize="10" guides="1" tooltips="1" connect="1" arrows="1" fold="1" page="1" pageScale="1" pageWidth="850" pageHeight="1100" math="0" shadow="0">
      <root>
        <mxCell id="0" />
        <mxCell id="1" parent="0" />
        <mxCell id="X8IGbNjl45nN9hJbJM19-9" style="edgeStyle=orthogonalEdgeStyle;rounded=0;orthogonalLoop=1;jettySize=auto;html=1;entryX=0.5;entryY=0;entryDx=0;entryDy=0;endArrow=ERzeroToMany;endFill=0;startArrow=ERmandOne;startFill=0;" parent="1" source="X8IGbNjl45nN9hJbJM19-1" target="X8IGbNjl45nN9hJbJM19-5" edge="1">
          <mxGeometry relative="1" as="geometry" />
        </mxCell>
        <mxCell id="X8IGbNjl45nN9hJbJM19-16" value="&lt;font style=&quot;font-size: 14px;&quot;&gt;&lt;b&gt;given by /&lt;br&gt;has&lt;/b&gt;&lt;/font&gt;" style="edgeLabel;html=1;align=center;verticalAlign=middle;resizable=0;points=[];" parent="X8IGbNjl45nN9hJbJM19-9" vertex="1" connectable="0">
          <mxGeometry x="-0.1" y="1" relative="1" as="geometry">
            <mxPoint y="1" as="offset" />
          </mxGeometry>
        </mxCell>
        <mxCell id="X8IGbNjl45nN9hJbJM19-1" value="customer" style="swimlane;childLayout=stackLayout;horizontal=1;startSize=50;horizontalStack=0;rounded=1;fontSize=14;fontStyle=0;strokeWidth=2;resizeParent=0;resizeLast=1;shadow=0;dashed=0;align=center;arcSize=4;whiteSpace=wrap;html=1;" parent="1" vertex="1">
          <mxGeometry x="50" y="50" width="160" height="120" as="geometry" />
        </mxCell>
        <mxCell id="X8IGbNjl45nN9hJbJM19-2" value="+ name [RU]&lt;br&gt;+ address [RC]&lt;br&gt;+ phone [R]&lt;br&gt;+ contact [RM]" style="align=left;strokeColor=none;fillColor=none;spacingLeft=4;fontSize=12;verticalAlign=top;resizable=0;rotatable=0;part=1;html=1;" parent="X8IGbNjl45nN9hJbJM19-1" vertex="1">
          <mxGeometry y="50" width="160" height="70" as="geometry" />
        </mxCell>
        <mxCell id="X8IGbNjl45nN9hJbJM19-12" style="edgeStyle=orthogonalEdgeStyle;rounded=0;orthogonalLoop=1;jettySize=auto;html=1;entryX=1;entryY=0.25;entryDx=0;entryDy=0;endArrow=ERzeroToMany;endFill=0;startArrow=ERmandOne;startFill=0;" parent="1" source="X8IGbNjl45nN9hJbJM19-3" target="X8IGbNjl45nN9hJbJM19-6" edge="1">
          <mxGeometry relative="1" as="geometry" />
        </mxCell>
        <mxCell id="X8IGbNjl45nN9hJbJM19-17" value="&lt;font style=&quot;font-size: 14px;&quot;&gt;&lt;b&gt;manages /&lt;br&gt;managed by&lt;/b&gt;&lt;/font&gt;" style="edgeLabel;html=1;align=center;verticalAlign=middle;resizable=0;points=[];" parent="X8IGbNjl45nN9hJbJM19-12" vertex="1" connectable="0">
          <mxGeometry x="0.0025" y="2" relative="1" as="geometry">
            <mxPoint as="offset" />
          </mxGeometry>
        </mxCell>
        <mxCell id="X8IGbNjl45nN9hJbJM19-3" value="employee" style="swimlane;childLayout=stackLayout;horizontal=1;startSize=50;horizontalStack=0;rounded=1;fontSize=14;fontStyle=0;strokeWidth=2;resizeParent=0;resizeLast=1;shadow=0;dashed=0;align=center;arcSize=4;whiteSpace=wrap;html=1;" parent="1" vertex="1">
          <mxGeometry x="570" y="50" width="160" height="120" as="geometry" />
        </mxCell>
        <mxCell id="X8IGbNjl45nN9hJbJM19-4" value="+ name [RC]&lt;br&gt;+ email [RU]&lt;br&gt;+ set of skills [RM]&lt;br&gt;+ hourly rate [R]" style="align=left;strokeColor=none;fillColor=none;spacingLeft=4;fontSize=12;verticalAlign=top;resizable=0;rotatable=0;part=1;html=1;" parent="X8IGbNjl45nN9hJbJM19-3" vertex="1">
          <mxGeometry y="50" width="160" height="70" as="geometry" />
        </mxCell>
        <mxCell id="X8IGbNjl45nN9hJbJM19-5" value="project" style="swimlane;childLayout=stackLayout;horizontal=1;startSize=50;horizontalStack=0;rounded=1;fontSize=14;fontStyle=0;strokeWidth=2;resizeParent=0;resizeLast=1;shadow=0;dashed=0;align=center;arcSize=4;whiteSpace=wrap;html=1;" parent="1" vertex="1">
          <mxGeometry x="50" y="430" width="160" height="160" as="geometry" />
        </mxCell>
        <mxCell id="X8IGbNjl45nN9hJbJM19-6" value="+ name [R]&lt;br&gt;+ estimated cost [RD]&lt;br&gt;+ estimated hours [R]&lt;br&gt;+ agreed hourly rate [R]&lt;br&gt;+ description&lt;br&gt;+ customer contact [R]&lt;div&gt;&lt;br/&gt;&lt;/div&gt;" style="align=left;strokeColor=none;fillColor=none;spacingLeft=4;fontSize=12;verticalAlign=top;resizable=0;rotatable=0;part=1;html=1;" parent="X8IGbNjl45nN9hJbJM19-5" vertex="1">
          <mxGeometry y="50" width="160" height="110" as="geometry" />
        </mxCell>
        <mxCell id="X8IGbNjl45nN9hJbJM19-15" style="edgeStyle=orthogonalEdgeStyle;rounded=0;orthogonalLoop=1;jettySize=auto;html=1;endArrow=ERoneToMany;endFill=0;startArrow=ERmandOne;startFill=0;" parent="1" source="X8IGbNjl45nN9hJbJM19-7" edge="1">
          <mxGeometry relative="1" as="geometry">
            <mxPoint x="665" y="400" as="targetPoint" />
          </mxGeometry>
        </mxCell>
        <mxCell id="X8IGbNjl45nN9hJbJM19-20" value="&lt;font style=&quot;font-size: 14px;&quot;&gt;&lt;b&gt;worked by /&lt;br&gt;working on&lt;/b&gt;&lt;/font&gt;" style="edgeLabel;html=1;align=center;verticalAlign=middle;resizable=0;points=[];" parent="X8IGbNjl45nN9hJbJM19-15" vertex="1" connectable="0">
          <mxGeometry x="0.0346" y="2" relative="1" as="geometry">
            <mxPoint as="offset" />
          </mxGeometry>
        </mxCell>
        <mxCell id="X8IGbNjl45nN9hJbJM19-7" value="task" style="swimlane;childLayout=stackLayout;horizontal=1;startSize=50;horizontalStack=0;rounded=1;fontSize=14;fontStyle=0;strokeWidth=2;resizeParent=0;resizeLast=1;shadow=0;dashed=0;align=center;arcSize=4;whiteSpace=wrap;html=1;" parent="1" vertex="1">
          <mxGeometry x="570" y="510" width="190" height="160" as="geometry" />
        </mxCell>
        <mxCell id="X8IGbNjl45nN9hJbJM19-8" value="+ name [R]&lt;br&gt;+ estimated completion time [R]&lt;br&gt;+ actual completion time&lt;br&gt;+ assigned employee [R]&lt;br&gt;+ list of skills [M]&lt;br&gt;+ estimated cost [RD]&lt;br&gt;+ actual billable cost [D]" style="align=left;strokeColor=none;fillColor=none;spacingLeft=4;fontSize=12;verticalAlign=top;resizable=0;rotatable=0;part=1;html=1;" parent="X8IGbNjl45nN9hJbJM19-7" vertex="1">
          <mxGeometry y="50" width="190" height="110" as="geometry" />
        </mxCell>
        <mxCell id="X8IGbNjl45nN9hJbJM19-10" style="edgeStyle=orthogonalEdgeStyle;rounded=0;orthogonalLoop=1;jettySize=auto;html=1;entryX=0.5;entryY=0;entryDx=0;entryDy=0;endArrow=ERzeroToMany;endFill=0;startArrow=ERmandOne;startFill=0;" parent="1" source="X8IGbNjl45nN9hJbJM19-4" target="X8IGbNjl45nN9hJbJM19-13" edge="1">
          <mxGeometry relative="1" as="geometry" />
        </mxCell>
        <mxCell id="X8IGbNjl45nN9hJbJM19-19" value="&lt;font style=&quot;font-size: 14px;&quot;&gt;&lt;b&gt;working on /&lt;br&gt;worked by&lt;/b&gt;&lt;/font&gt;" style="edgeLabel;html=1;align=center;verticalAlign=middle;resizable=0;points=[];" parent="X8IGbNjl45nN9hJbJM19-10" vertex="1" connectable="0">
          <mxGeometry x="-0.1062" y="1" relative="1" as="geometry">
            <mxPoint as="offset" />
          </mxGeometry>
        </mxCell>
        <mxCell id="X8IGbNjl45nN9hJbJM19-11" style="edgeStyle=orthogonalEdgeStyle;rounded=0;orthogonalLoop=1;jettySize=auto;html=1;endArrow=ERmandOne;endFill=0;startArrow=ERoneToMany;startFill=0;" parent="1" source="X8IGbNjl45nN9hJbJM19-8" target="X8IGbNjl45nN9hJbJM19-6" edge="1">
          <mxGeometry relative="1" as="geometry" />
        </mxCell>
        <mxCell id="X8IGbNjl45nN9hJbJM19-18" value="&lt;font style=&quot;font-size: 14px;&quot;&gt;&lt;b&gt;contains /&lt;br&gt;contained by&lt;/b&gt;&lt;/font&gt;" style="edgeLabel;html=1;align=center;verticalAlign=middle;resizable=0;points=[];" parent="X8IGbNjl45nN9hJbJM19-11" vertex="1" connectable="0">
          <mxGeometry x="-0.0474" y="-1" relative="1" as="geometry">
            <mxPoint as="offset" />
          </mxGeometry>
        </mxCell>
        <mxCell id="X8IGbNjl45nN9hJbJM19-13" value="employee-task" style="swimlane;childLayout=stackLayout;horizontal=1;startSize=50;horizontalStack=0;rounded=1;fontSize=14;fontStyle=0;strokeWidth=2;resizeParent=0;resizeLast=1;shadow=0;dashed=0;align=center;arcSize=4;whiteSpace=wrap;html=1;" parent="1" vertex="1">
          <mxGeometry x="570" y="280" width="160" height="120" as="geometry" />
        </mxCell>
        <mxCell id="X8IGbNjl45nN9hJbJM19-21" value="&lt;font size=&quot;1&quot; style=&quot;&quot;&gt;&lt;b style=&quot;font-size: 27px;&quot;&gt;vchand03&lt;/b&gt;&lt;/font&gt;" style="text;html=1;align=center;verticalAlign=middle;resizable=0;points=[];autosize=1;strokeColor=none;fillColor=none;" parent="1" vertex="1">
          <mxGeometry x="175" y="338" width="150" height="50" as="geometry" />
        </mxCell>
      </root>
    </mxGraphModel>
  </diagram>
</mxfile>
